<?xml version="1.0" encoding="utf-8"?>
<!-- Generator: Adobe Illustrator 27.7.0, SVG Export Plug-In . SVG Version: 6.00 Build 0)  -->
<svg version="1.1" id="Layer_2" xmlns="http://www.w3.org/2000/svg" xmlns:xlink="http://www.w3.org/1999/xlink" x="0px" y="0px"
	 viewBox="0 0 240 234" style="enable-background:new 0 0 240 234;" xml:space="preserve">
<style type="text/css">
	.st0{fill-rule:evenodd;clip-rule:evenodd;fill:#FFFFFF;filter:url(#Adobe_OpacityMaskFilter);}
	.st1{mask:url(#mask0_00000114786945112164199300000014002476596775594889_);}
	.st2{fill:#0065A9;}
	.st3{fill:#007ACC;}
	.st4{fill:#1F9CF0;}
	.st5{opacity:0.25;}
	.st6{fill-rule:evenodd;clip-rule:evenodd;fill:url(#SVGID_1_);}
</style>
<defs>
	<filter id="Adobe_OpacityMaskFilter" filterUnits="userSpaceOnUse" x="3.9" y="3.5" width="231.1" height="228.5">
		<feColorMatrix  type="matrix" values="1 0 0 0 0  0 1 0 0 0  0 0 1 0 0  0 0 0 1 0"/>
	</filter>
</defs>
<mask maskUnits="userSpaceOnUse" x="3.9" y="3.5" width="231.1" height="228.5" id="mask0_00000114786945112164199300000014002476596775594889_">
	<path class="st0" d="M167.8,231c3.6,1.4,7.8,1.3,11.5-0.4l47.5-22.8c5-2.4,8.2-7.4,8.2-12.9V40.6c0-5.5-3.2-10.5-8.2-12.9
		L179.3,4.9c-4.8-2.3-10.5-1.7-14.7,1.3c-0.6,0.4-1.2,0.9-1.7,1.5l-91,82.6L32.2,60.3c-3.7-2.8-8.9-2.6-12.3,0.5L7.2,72.4
		C3,76.2,3,82.7,7.2,86.5l34.4,31.2L7.2,148.9c-4.2,3.8-4.2,10.4,0,14.2l12.7,11.5c3.4,3.1,8.6,3.3,12.3,0.5l39.6-29.9l91,82.6
		C164.3,229.2,166,230.3,167.8,231z M177.3,65.6l-69.1,52.1l69.1,52.1V65.6z"/>
</mask>
<g class="st1">
	<path class="st2" d="M226.8,27.7L179.2,4.9c-5.5-2.6-12.1-1.5-16.4,2.8L7.1,148.9c-4.2,3.8-4.2,10.4,0,14.2l12.7,11.5
		c3.4,3.1,8.6,3.3,12.3,0.5L219.7,33.6c6.3-4.7,15.3-0.3,15.3,7.6v-0.5C235,35.1,231.8,30.1,226.8,27.7z"/>
	<g>
		<path class="st3" d="M226.8,207.8l-47.6,22.8c-5.5,2.6-12.1,1.5-16.4-2.8L7.1,86.5c-4.2-3.8-4.2-10.4,0-14.2l12.7-11.5
			c3.4-3.1,8.6-3.3,12.3-0.5l187.6,141.5c6.3,4.7,15.3,0.3,15.3-7.6v0.5C235,200.4,231.8,205.4,226.8,207.8z"/>
	</g>
	<g>
		<path class="st4" d="M179.3,230.6c-5.5,2.6-12.1,1.5-16.4-2.8c5.3,5.3,14.4,1.5,14.4-5.9V13.6c0-7.5-9.1-11.2-14.4-5.9
			c4.3-4.3,10.9-5.4,16.4-2.8l47.6,22.8c5,2.4,8.2,7.4,8.2,12.9v154.3c0,5.5-3.2,10.5-8.2,12.9L179.3,230.6z"/>
	</g>
	<g class="st5">
		
			<linearGradient id="SVGID_1_" gradientUnits="userSpaceOnUse" x1="119.3994" y1="232.5081" x2="119.3994" y2="4.0002" gradientTransform="matrix(1 0 0 -1 0 236)">
			<stop  offset="0" style="stop-color:#FFFFFF"/>
			<stop  offset="1" style="stop-color:#FFFFFF;stop-opacity:0"/>
		</linearGradient>
		<path class="st6" d="M167.7,231c3.6,1.4,7.8,1.3,11.5-0.4l47.5-22.8c5-2.4,8.2-7.4,8.2-12.9V40.6c0-5.5-3.2-10.5-8.2-12.9
			L179.1,4.9c-4.8-2.3-10.5-1.7-14.7,1.3c-0.6,0.4-1.2,0.9-1.7,1.5l-91,82.6L32.1,60.3c-3.7-2.8-8.9-2.6-12.3,0.5L7.1,72.4
			c-4.2,3.8-4.2,10.4,0,14.2l34.4,31.2L7.1,148.9c-4.2,3.8-4.2,10.4,0,14.2l12.7,11.5c3.4,3.1,8.6,3.3,12.3,0.5l39.6-29.9l91,82.6
			C164.2,229.2,165.9,230.3,167.7,231z M177.2,65.6l-69.1,52.1l69.1,52.1V65.6z"/>
	</g>
</g>
</svg>
