<?xml version="1.0" encoding="utf-8"?>
<!-- Generator: Adobe Illustrator 27.7.0, SVG Export Plug-In . SVG Version: 6.00 Build 0)  -->
<svg version="1.1" id="Layer_1" xmlns="http://www.w3.org/2000/svg" xmlns:xlink="http://www.w3.org/1999/xlink" x="0px" y="0px"
	 viewBox="0 0 128 128" style="enable-background:new 0 0 128 128;" xml:space="preserve">
<style type="text/css">
	.st0{fill:none;}
	.st1{filter:url(#a);}
	.st2{fill-rule:evenodd;clip-rule:evenodd;}
	.st3{fill-rule:evenodd;clip-rule:evenodd;fill:#FFFFFF;fill-opacity:0;stroke:#BABABA;stroke-width:2.1262;stroke-opacity:0.5;}
	.st4{fill-rule:evenodd;clip-rule:evenodd;fill:url(#SVGID_1_);}
	.st5{filter:url(#f);}
	.st6{fill-rule:evenodd;clip-rule:evenodd;fill:url(#e_00000138564363430602254510000017433706730279420598_);}
	.st7{filter:url(#h);}
</style>
<filter  filterUnits="objectBoundingBox" height="103%" id="h" width="101.9%" x="-1%" y="-1%">
	<feGaussianBlur  in="SourceAlpha" result="shadowBlurInner1" stdDeviation="1"></feGaussianBlur>
	<feOffset  in="shadowBlurInner1" result="shadowOffsetInner1"></feOffset>
	<feComposite  in="shadowOffsetInner1" in2="SourceAlpha" k2="-1" k3="1" operator="arithmetic" result="shadowInnerInner1">
		</feComposite>
	
		<feColorMatrix  in="shadowInnerInner1" values="0 0 0 0 0.258823529 0 0 0 0 0.137254902 0 0 0 0 0.431372549 0 0 0 0.703549592 0">
		</feColorMatrix>
</filter>
<filter  filterUnits="objectBoundingBox" height="102%" id="f" width="101%" x="-.5%" y="-.5%">
	<feOffset  dy="1" in="SourceAlpha" result="shadowOffsetOuter1"></feOffset>
	<feColorMatrix  in="shadowOffsetOuter1" values="0 0 0 0 1 0 0 0 0 1 0 0 0 0 1 0 0 0 0.529296875 0"></feColorMatrix>
</filter>
<filter  filterUnits="objectBoundingBox" height="114.3%" id="a" width="114.3%" x="-7.1%" y="-5.4%">
	<feMorphology  in="SourceAlpha" operator="dilate" radius="1" result="shadowSpreadOuter1"></feMorphology>
	<feOffset  dy="2" in="shadowSpreadOuter1" result="shadowOffsetOuter1"></feOffset>
	<feGaussianBlur  in="shadowOffsetOuter1" result="shadowBlurOuter1" stdDeviation="2"></feGaussianBlur>
	<feComposite  in="shadowBlurOuter1" in2="SourceAlpha" operator="out" result="shadowBlurOuter1"></feComposite>
	<feColorMatrix  in="shadowBlurOuter1" values="0 0 0 0 0 0 0 0 0 0 0 0 0 0 0 0 0 0 0.240942029 0"></feColorMatrix>
</filter>
<g>
	<path class="st0" d="M-4-5H132V131H-4V-5z"/>
	<g class="st1">
		<circle id="b_00000059277876314239160420000015192699776888055950_" class="st2" cx="64" cy="63" r="59.5"/>
	</g>
	<g>
		<circle id="b_00000084527586451819422240000004493183585917777087_" class="st3" cx="64" cy="63" r="59.5"/>
	</g>
	
		<linearGradient id="SVGID_1_" gradientUnits="userSpaceOnUse" x1="-238.3482" y1="458.0851" x2="-238.3482" y2="457.022" gradientTransform="matrix(112 0 0 -112 26759 51309)">
		<stop  offset="0" style="stop-color:#FEFEFE"/>
		<stop  offset="1" style="stop-color:#E0E0E0"/>
	</linearGradient>
	<circle class="st4" cx="64" cy="63" r="59.5"/>
	<g>
		<g class="st5">
			<path id="e_00000027575730580378152050000010072746832745935016_" class="st2" d="M8.7,63c0,24.5,15.8,45.2,37.8,52.5
				c2.8,0.5,3.8-1.2,3.8-2.6c0-1.3-0.1-5.7-0.1-10.3c-13.9,2.6-17.5-3.4-18.6-6.5c-0.6-1.6-3.3-6.5-5.7-7.8c-1.9-1-4.7-3.6-0.1-3.7
				c4.4-0.1,7.5,4,8.5,5.7c5,8.4,12.9,6,16.1,4.6c0.5-3.6,1.9-6,3.5-7.4c-12.3-1.4-25.2-6.2-25.2-27.3c0-6,2.1-11,5.7-14.9
				c-0.6-1.4-2.5-7.1,0.6-14.7c0,0,4.6-1.5,15.2,5.7c4.4-1.2,9.1-1.9,13.8-1.9S73.5,35,78,36.3c10.6-7.2,15.2-5.7,15.2-5.7
				c3,7.6,1.1,13.3,0.6,14.7c3.5,3.9,5.7,8.8,5.7,14.9c0,21.2-12.9,25.9-25.2,27.3c2,1.7,3.7,5,3.7,10.2c0,7.4-0.1,13.3-0.1,15.2
				c0,1.5,1,3.2,3.8,2.6c21.8-7.3,37.7-28.1,37.7-52.5c0-30.6-24.7-55.3-55.3-55.3S8.7,32.5,8.7,63z"/>
		</g>
		<g>
			
				<linearGradient id="e_00000108267700042409992460000001041160596255357625_" gradientUnits="userSpaceOnUse" x1="-238.1827" y1="456.718" x2="-238.1827" y2="457.781" gradientTransform="matrix(104 0 0 -101.4983 24835 46471.7344)">
				<stop  offset="0" style="stop-color:#492779"/>
				<stop  offset="1" style="stop-color:#892793"/>
			</linearGradient>
			
				<path id="e_00000062170702535257388140000002338035871313902243_" style="fill-rule:evenodd;clip-rule:evenodd;fill:url(#e_00000108267700042409992460000001041160596255357625_);" d="
				M8.7,63c0,24.5,15.8,45.2,37.8,52.5c2.8,0.5,3.8-1.2,3.8-2.6c0-1.3-0.1-5.7-0.1-10.3c-13.9,2.6-17.5-3.4-18.6-6.5
				c-0.6-1.6-3.3-6.5-5.7-7.8c-1.9-1-4.7-3.6-0.1-3.7c4.4-0.1,7.5,4,8.5,5.7c5,8.4,12.9,6,16.1,4.6c0.5-3.6,1.9-6,3.5-7.4
				c-12.3-1.4-25.2-6.2-25.2-27.3c0-6,2.1-11,5.7-14.9c-0.6-1.4-2.5-7.1,0.6-14.7c0,0,4.6-1.5,15.2,5.7c4.4-1.2,9.1-1.9,13.8-1.9
				S73.5,35,78,36.3c10.6-7.2,15.2-5.7,15.2-5.7c3,7.6,1.1,13.3,0.6,14.7c3.5,3.9,5.7,8.8,5.7,14.9c0,21.2-12.9,25.9-25.2,27.3
				c2,1.7,3.7,5,3.7,10.2c0,7.4-0.1,13.3-0.1,15.2c0,1.5,1,3.2,3.8,2.6c21.8-7.3,37.7-28.1,37.7-52.5c0-30.6-24.7-55.3-55.3-55.3
				S8.7,32.5,8.7,63z"/>
		</g>
		<g class="st7">
			<path id="e_00000063602371615004494470000010270039171113111441_" class="st2" d="M8.7,63c0,24.5,15.8,45.2,37.8,52.5
				c2.8,0.5,3.8-1.2,3.8-2.6c0-1.3-0.1-5.7-0.1-10.3c-13.9,2.6-17.5-3.4-18.6-6.5c-0.6-1.6-3.3-6.5-5.7-7.8c-1.9-1-4.7-3.6-0.1-3.7
				c4.4-0.1,7.5,4,8.5,5.7c5,8.4,12.9,6,16.1,4.6c0.5-3.6,1.9-6,3.5-7.4c-12.3-1.4-25.2-6.2-25.2-27.3c0-6,2.1-11,5.7-14.9
				c-0.6-1.4-2.5-7.1,0.6-14.7c0,0,4.6-1.5,15.2,5.7c4.4-1.2,9.1-1.9,13.8-1.9S73.5,35,78,36.3c10.6-7.2,15.2-5.7,15.2-5.7
				c3,7.6,1.1,13.3,0.6,14.7c3.5,3.9,5.7,8.8,5.7,14.9c0,21.2-12.9,25.9-25.2,27.3c2,1.7,3.7,5,3.7,10.2c0,7.4-0.1,13.3-0.1,15.2
				c0,1.5,1,3.2,3.8,2.6c21.8-7.3,37.7-28.1,37.7-52.5c0-30.6-24.7-55.3-55.3-55.3S8.7,32.5,8.7,63z"/>
		</g>
	</g>
</g>
</svg>
