<?xml version="1.0" encoding="utf-8"?>
<!-- Generator: Adobe Illustrator 27.7.0, SVG Export Plug-In . SVG Version: 6.00 Build 0)  -->
<svg version="1.1" id="Layer_2" xmlns="http://www.w3.org/2000/svg" xmlns:xlink="http://www.w3.org/1999/xlink" x="0px" y="0px"
	 viewBox="0 0 240 234" style="enable-background:new 0 0 240 234;" xml:space="preserve">
<style type="text/css">
	.st0{fill:#17191B;}
	.st1{fill:#0ACF83;}
	.st2{fill:#A259FF;}
	.st3{fill:#F24E1E;}
	.st4{fill:#FF7262;}
	.st5{fill:#1ABCFE;}
</style>
<g id="Layer_2_1_">
	<g id="Surfaces">
		<g id="Photo_Surface">
			<g id="Outline_no_shadow">
				<path class="st0" d="M42.5,0h155C221,0,240,19,240,42.5v149c0,23.5-19,42.5-42.5,42.5h-155C19,234,0,215,0,191.5v-149
					C0,19,19,0,42.5,0z"/>
			</g>
		</g>
	</g>
</g>
<path id="path0_fill" class="st1" d="M91.7,202c15.6,0,28.3-12.7,28.3-28.3v-28.3H91.7c-15.6,0-28.3,12.7-28.3,28.3S76,202,91.7,202
	z"/>
<path id="path1_fill" class="st2" d="M63.3,117c0-15.6,12.7-28.3,28.3-28.3H120v56.7H91.7C76,145.3,63.3,132.6,63.3,117z"/>
<path id="path1_fill_1_" class="st3" d="M63.3,60.3C63.3,44.7,76,32,91.7,32H120v56.7H91.7C76,88.7,63.3,76,63.3,60.3z"/>
<path id="path2_fill" class="st4" d="M120,32h28.3c15.6,0,28.3,12.7,28.3,28.3S164,88.7,148.3,88.7H120V32z"/>
<path id="path3_fill" class="st5" d="M176.7,117c0,15.6-12.7,28.3-28.3,28.3S120,132.6,120,117s12.7-28.3,28.3-28.3
	S176.7,101.4,176.7,117z"/>
</svg>
