<?xml version="1.0" encoding="utf-8"?>
<!-- Generator: Adobe Illustrator 27.7.0, SVG Export Plug-In . SVG Version: 6.00 Build 0)  -->
<svg version="1.1" id="Layer_2" xmlns="http://www.w3.org/2000/svg" xmlns:xlink="http://www.w3.org/1999/xlink" x="0px" y="0px"
	 viewBox="0 0 240 234" style="enable-background:new 0 0 240 234;" xml:space="preserve">
<style type="text/css">
	.st0{fill:#2684FF;}
	.st1{fill:url(#Vector_2_00000106843634833580515350000001020240062266407100_);}
	.st2{fill:url(#Vector_3_00000169527693866745891010000005237927252501659793_);}
</style>
<g id="Icon">
	<path id="Vector" class="st0" d="M230,0.4H114.3c0,27.9,23.4,50.6,52.1,50.6h21.4v19.8c0,27.9,23.4,50.6,52.1,50.6V10.2
		C240,4.7,235.7,0.4,230,0.4z"/>
	
		<linearGradient id="Vector_2_00000183238319778433854310000006804001516509950356_" gradientUnits="userSpaceOnUse" x1="178.5452" y1="181.1605" x2="130.8492" y2="130.5191" gradientTransform="matrix(1 0 0 -1 0 236)">
		<stop  offset="0.176" style="stop-color:#0052CC"/>
		<stop  offset="1" style="stop-color:#2684FF"/>
	</linearGradient>
	<path id="Vector_2" style="fill:url(#Vector_2_00000183238319778433854310000006804001516509950356_);" d="M172.8,56.3H57.2
		c0,27.9,23.4,50.6,52.1,50.6h21.4v20.1c0,27.9,23.4,50.6,52.1,50.6V66C182.8,60.8,178.5,56.3,172.8,56.3z"/>
	
		<linearGradient id="Vector_3_00000012435779589281668000000006087239853302972801_" gradientUnits="userSpaceOnUse" x1="124.671" y1="124.935" x2="69.43" y2="69.5969" gradientTransform="matrix(1 0 0 -1 0 236)">
		<stop  offset="0.176" style="stop-color:#0052CC"/>
		<stop  offset="1" style="stop-color:#2684FF"/>
	</linearGradient>
	<path id="Vector_3" style="fill:url(#Vector_3_00000012435779589281668000000006087239853302972801_);" d="M115.7,112.5H0
		c0,27.9,23.4,50.6,52.1,50.6h21.4v19.8c0,27.9,23.4,50.6,52.1,50.6V122.2C125.7,116.7,121,112.5,115.7,112.5z"/>
</g>
</svg>
