<?xml version="1.0" encoding="utf-8"?>
<!-- Generator: Adobe Illustrator 27.7.0, SVG Export Plug-In . SVG Version: 6.00 Build 0)  -->
<svg version="1.1" id="Layer_2" xmlns="http://www.w3.org/2000/svg" xmlns:xlink="http://www.w3.org/1999/xlink" x="0px" y="0px"
	 viewBox="0 0 240 234" style="enable-background:new 0 0 240 234;" xml:space="preserve">
<style type="text/css">
	.st0{clip-path:url(#SVGID_00000126304138909082447070000013107685517541814144_);}
	.st1{fill-rule:evenodd;clip-rule:evenodd;fill:#38BDF8;}
</style>
<g>
	<defs>
		<rect id="SVGID_1_" y="37.9" width="240" height="144"/>
	</defs>
	<clipPath id="SVGID_00000013172952757942707700000000339750103916053125_">
		<use xlink:href="#SVGID_1_"  style="overflow:visible;"/>
	</clipPath>
	<g style="clip-path:url(#SVGID_00000013172952757942707700000000339750103916053125_);">
		<path class="st1" d="M120,37.9c-32,0-52,16-60,48c12-16,26-22,42-18c9.1,2.3,15.7,8.9,22.9,16.2c11.8,11.9,25.4,25.8,55.1,25.8
			c32,0,52-16,60-48c-12,16-26,22-42,18c-9.1-2.3-15.7-8.9-22.9-16.2C163.4,51.7,149.7,37.9,120,37.9z M60,109.9c-32,0-52,16-60,48
			c12-16,26-22,42-18c9.1,2.3,15.7,8.9,22.9,16.2c11.8,11.9,25.4,25.8,55.1,25.8c32,0,52-16,60-48c-12,16-26,22-42,18
			c-9.1-2.3-15.7-8.9-22.9-16.2C103.4,123.7,89.7,109.9,60,109.9z"/>
	</g>
</g>
</svg>
