<?xml version="1.0" encoding="utf-8"?>
<!-- Generator: Adobe Illustrator 27.7.0, SVG Export Plug-In . SVG Version: 6.00 Build 0)  -->
<svg version="1.1" id="Layer_1" xmlns="http://www.w3.org/2000/svg" xmlns:xlink="http://www.w3.org/1999/xlink" x="0px" y="0px"
	 viewBox="0 0 800 800" style="enable-background:new 0 0 800 800;" xml:space="preserve">
<style type="text/css">
	.st0{fill:#1C4913;}
	.st1{fill:#FEFFFC;}
</style>
<path class="st0" d="M0,0h800v800H0V0 M103.1,98.1c0,192.9,0,385.8,0,578.7h99.4c0-83.9,0-167.9,0-251.9
	c24.2,84,48.3,167.9,72.5,251.9c33.1,0,66.2,0,99.3,0c0-192.9,0-385.8,0-578.7c-33.4,0-66.7,0-100,0c0,78.8,0,157.7,0,236.5
	c-24.1-78.9-48.3-157.7-72.5-236.5C168.8,98.1,136,98.1,103.1,98.1 M596.1,235.3c0,113.7,0,227.4,0,341.1h-72.2c0-35,0-70,0-105
	c-33.4,7.8-66.9,15.5-100.4,23.3c0,35.1,0,70.2,0,105.4c-0.7,10.5,0.1,21.1,2.2,31.4c3.9,14.1,12.6,26.5,24.7,34.8
	c10,6.9,21.9,10.6,34.1,10.6c45.4,0,90.7,0,136.1,0c10.3,0.6,20.7-0.1,30.9-2.3c14.7-4.3,27.4-13.7,35.6-26.6
	c6.6-10.3,9.9-22.3,9.6-34.5c0-126,0-252.1,0-378.1L596.1,235.3z"/>
<path class="st1" d="M103.1,98.1c32.9,0,65.7,0,98.6,0c24.2,78.8,48.4,157.7,72.5,236.5c-0.2-78.8,0-157.7,0-236.5
	c33.4,0,66.7,0,100,0c0,192.9,0,385.8,0,578.7c-33.1,0-66.2,0-99.3,0c-24.2-83.9-48.3-167.9-72.5-251.9c0,84,0,167.9,0,251.9h-99.4
	C103.1,483.9,103.1,291,103.1,98.1z"/>
<path class="st1" d="M596.1,235.2h100.4c0,126,0,252.1,0,378.1c0.3,12.2-3,24.2-9.6,34.5c-8.3,12.9-20.9,22.3-35.6,26.6
	c-10.1,2.1-20.5,2.9-30.9,2.3c-45.4,0-90.7,0-136.1,0c-12.2,0-24.1-3.7-34.1-10.6c-12-8.3-20.7-20.6-24.6-34.7
	c-2.1-10.3-2.9-20.9-2.2-31.4c0-35.1,0-70.2,0-105.4c33.5-7.8,66.9-15.5,100.4-23.3c0,35,0,70,0,105h72.3
	C596.1,462.6,596.1,348.9,596.1,235.2z"/>
</svg>
