<?xml version="1.0" encoding="utf-8"?>
<!-- Generator: Adobe Illustrator 27.7.0, SVG Export Plug-In . SVG Version: 6.00 Build 0)  -->
<svg version="1.1" id="Layer_1" xmlns="http://www.w3.org/2000/svg" xmlns:xlink="http://www.w3.org/1999/xlink" x="0px" y="0px"
	 viewBox="0 0 240 234" style="enable-background:new 0 0 240 234;" xml:space="preserve">
<style type="text/css">
	.st0{fill:#0B5CFF;}
	.st1{fill:#FFFFFF;}
</style>
<g id="Layer_2_1_">
	<g id="Surfaces">
		<g id="Photo_Surface">
			<g id="Outline_no_shadow">
				<path class="st0" d="M42.5,0h155C221,0,240,19,240,42.5v149c0,23.5-19,42.5-42.5,42.5h-155C19,234,0,215,0,191.5v-149
					C0,19,19,0,42.5,0z"/>
			</g>
		</g>
	</g>
</g>
<g id="Layer_2_00000117663187524486064980000004593669019768515743_">
	<g id="Layer_1-2">
		<path class="st1" d="M59.8,136H22.9c-2.5,0-4.7-1.3-5.9-3.5c-1.3-2.5-0.8-5.5,1.2-7.5l25.6-25.7H25.4c-5.1,0-9.2-4.1-9.2-9.2h34.1
			c2.5,0,4.7,1.3,5.9,3.5c1.3,2.5,0.8,5.5-1.2,7.5l-25.7,25.7h21.3C55.7,126.8,59.8,130.9,59.8,136z M206.1,89.4
			c-5.1,0-9.9,2.2-13.3,6c-3.4-3.8-8.2-6-13.3-6c-9.9,0.3-17.9,8.4-17.9,18.3V136c5.1,0,9.2-4.1,9.2-9.2v-19.3
			c-0.1-4.8,3.6-8.7,8.4-9c4.8-0.2,8.9,3.5,9.2,8.3c0,0.1,0,0.3,0,0.4v19.5c0,5.1,4.1,9.2,9.2,9.2v-28.4c-0.1-4.7,3.6-8.7,8.3-9
			c4.8-0.2,8.9,3.6,9.1,8.4c0,0.1,0,0.2,0,0.3v19.5c0,5.1,4.1,9.2,9.2,9.2v-28.2C224,97.8,216.1,89.6,206.1,89.4z M106.1,113.1
			c0,13-10.6,23.6-23.7,23.5S58.9,126,58.9,112.9c0-13,10.6-23.5,23.6-23.5C95.6,89.4,106.1,100,106.1,113.1
			C106.1,113,106.1,113.1,106.1,113.1z M97,113.1c0-8-6.5-14.4-14.4-14.4s-14.4,6.5-14.4,14.4s6.5,14.4,14.4,14.4l0,0
			C90.5,127.5,97,121,97,113.1z M157,113.1c0,13-10.6,23.6-23.7,23.5s-23.6-10.6-23.5-23.7c0-13,10.6-23.5,23.6-23.5
			C146.5,89.4,157.1,100,157,113.1C157,113,157,113.1,157,113.1z M147.9,113.1c0-8-6.5-14.4-14.4-14.4c-8,0-14.4,6.5-14.4,14.4
			c0,8,6.5,14.4,14.4,14.4l0,0C141.4,127.5,147.9,121,147.9,113.1z"/>
	</g>
</g>
</svg>
